<mxfile host="app.diagrams.net" modified="2024-07-14T21:09:51.062Z" agent="Mozilla/5.0 (Windows NT 10.0; Win64; x64; rv:128.0) Gecko/20100101 Firefox/128.0" etag="OkBR2ew-Eo7xgi7vRZfU" version="24.4.13" type="device">
  <diagram name="Page-1" id="ecDlFoF8hFDZcowKq9mr">
    <mxGraphModel dx="1434" dy="745" grid="1" gridSize="10" guides="1" tooltips="1" connect="1" arrows="1" fold="1" page="1" pageScale="1" pageWidth="827" pageHeight="1169" math="0" shadow="0">
      <root>
        <mxCell id="0" />
        <mxCell id="1" parent="0" />
        <mxCell id="i_mntlZDiQJy1xfVfK1t-5" style="edgeStyle=orthogonalEdgeStyle;rounded=0;orthogonalLoop=1;jettySize=auto;html=1;" edge="1" parent="1" source="i_mntlZDiQJy1xfVfK1t-1" target="i_mntlZDiQJy1xfVfK1t-2">
          <mxGeometry relative="1" as="geometry" />
        </mxCell>
        <mxCell id="i_mntlZDiQJy1xfVfK1t-1" value="&lt;div&gt;Client starts matchmaking&lt;/div&gt;" style="strokeWidth=2;html=1;shape=mxgraph.flowchart.terminator;whiteSpace=wrap;" vertex="1" parent="1">
          <mxGeometry x="40" y="40" width="120" height="40" as="geometry" />
        </mxCell>
        <mxCell id="i_mntlZDiQJy1xfVfK1t-6" style="edgeStyle=orthogonalEdgeStyle;rounded=0;orthogonalLoop=1;jettySize=auto;html=1;" edge="1" parent="1" source="i_mntlZDiQJy1xfVfK1t-2" target="i_mntlZDiQJy1xfVfK1t-4">
          <mxGeometry relative="1" as="geometry" />
        </mxCell>
        <mxCell id="i_mntlZDiQJy1xfVfK1t-2" value="Client sends server a message to add them to the queue" style="rounded=1;whiteSpace=wrap;html=1;absoluteArcSize=1;arcSize=14;strokeWidth=2;" vertex="1" parent="1">
          <mxGeometry x="50" y="120" width="100" height="100" as="geometry" />
        </mxCell>
        <mxCell id="i_mntlZDiQJy1xfVfK1t-11" style="edgeStyle=orthogonalEdgeStyle;rounded=0;orthogonalLoop=1;jettySize=auto;html=1;" edge="1" parent="1" source="i_mntlZDiQJy1xfVfK1t-4" target="i_mntlZDiQJy1xfVfK1t-10">
          <mxGeometry relative="1" as="geometry" />
        </mxCell>
        <mxCell id="i_mntlZDiQJy1xfVfK1t-17" value="No" style="edgeLabel;html=1;align=center;verticalAlign=middle;resizable=0;points=[];fontSize=12;" vertex="1" connectable="0" parent="i_mntlZDiQJy1xfVfK1t-11">
          <mxGeometry x="-0.2909" y="-2" relative="1" as="geometry">
            <mxPoint as="offset" />
          </mxGeometry>
        </mxCell>
        <mxCell id="i_mntlZDiQJy1xfVfK1t-18" style="edgeStyle=orthogonalEdgeStyle;rounded=0;orthogonalLoop=1;jettySize=auto;html=1;" edge="1" parent="1" source="i_mntlZDiQJy1xfVfK1t-4">
          <mxGeometry relative="1" as="geometry">
            <mxPoint x="100" y="440" as="targetPoint" />
          </mxGeometry>
        </mxCell>
        <mxCell id="i_mntlZDiQJy1xfVfK1t-19" value="&lt;div style=&quot;font-size: 12px;&quot;&gt;Yes&lt;/div&gt;" style="edgeLabel;html=1;align=center;verticalAlign=middle;resizable=0;points=[];fontSize=12;" vertex="1" connectable="0" parent="i_mntlZDiQJy1xfVfK1t-18">
          <mxGeometry x="-0.1606" y="6" relative="1" as="geometry">
            <mxPoint as="offset" />
          </mxGeometry>
        </mxCell>
        <mxCell id="i_mntlZDiQJy1xfVfK1t-4" value="Are there at least two clients in the queue?" style="strokeWidth=2;html=1;shape=mxgraph.flowchart.decision;whiteSpace=wrap;" vertex="1" parent="1">
          <mxGeometry x="30" y="260" width="140" height="140" as="geometry" />
        </mxCell>
        <mxCell id="i_mntlZDiQJy1xfVfK1t-13" style="edgeStyle=orthogonalEdgeStyle;rounded=0;orthogonalLoop=1;jettySize=auto;html=1;exitX=0.5;exitY=0;exitDx=0;exitDy=0;" edge="1" parent="1" source="i_mntlZDiQJy1xfVfK1t-10">
          <mxGeometry relative="1" as="geometry">
            <mxPoint x="330" y="240" as="targetPoint" />
          </mxGeometry>
        </mxCell>
        <mxCell id="i_mntlZDiQJy1xfVfK1t-10" value="&lt;div&gt;Wait some time&lt;/div&gt;" style="rounded=1;whiteSpace=wrap;html=1;absoluteArcSize=1;arcSize=14;strokeWidth=2;" vertex="1" parent="1">
          <mxGeometry x="280" y="280" width="100" height="100" as="geometry" />
        </mxCell>
        <mxCell id="i_mntlZDiQJy1xfVfK1t-14" value="" style="endArrow=classic;html=1;rounded=0;" edge="1" parent="1">
          <mxGeometry width="50" height="50" relative="1" as="geometry">
            <mxPoint x="330" y="240" as="sourcePoint" />
            <mxPoint x="100" y="240" as="targetPoint" />
          </mxGeometry>
        </mxCell>
        <mxCell id="i_mntlZDiQJy1xfVfK1t-21" value="&lt;div&gt;Create new game and transfer clients from the queue into the game&lt;/div&gt;" style="rounded=1;whiteSpace=wrap;html=1;absoluteArcSize=1;arcSize=14;strokeWidth=2;" vertex="1" parent="1">
          <mxGeometry x="50" y="440" width="100" height="100" as="geometry" />
        </mxCell>
      </root>
    </mxGraphModel>
  </diagram>
</mxfile>
